<?xml version="1.0" encoding="UTF-8"?>
<svg width="275px" height="324px" viewBox="0 0 275 324" version="1.1" xmlns="http://www.w3.org/2000/svg" xmlns:xlink="http://www.w3.org/1999/xlink">
    <!-- Generator: Sketch 47 (45396) - http://www.bohemiancoding.com/sketch -->
    <title>Group</title>
    <desc>Created with Sketch.</desc>
    <defs></defs>
    <g id="Page-1" stroke="none" stroke-width="1" fill="none" fill-rule="evenodd">
        <g id="Artboard" transform="translate(-52.000000, -21.000000)">
            <g id="Group" transform="translate(52.000000, 21.000000)">
                <path d="M0.854215873,74.5840001 C8.51553113,32.6242716 66.7713165,0 137.5,0 C207.499966,0 265.282727,31.9554794 273.89291,73.290066 C274.61797,76.3953544 275,79.950208 275,84 C275,114.988058 258.031652,168.771581 230.769531,218 C199.726145,274.056418 156.937107,324 139,324 C121.067518,324 77.0544591,274.038452 45.2207031,218 C17.2490651,168.760215 0,114.997155 0,84 C0,80.5017793 0.293412109,77.3728592 0.854215873,74.5840001 Z" id="Combined-Shape" fill="#DC3617"></path>
                <path d="M29.6771602,74.5840001 C35.7504938,32.6242716 81.9314436,0 138,0 C193.490886,0 239.296858,31.955483 246.122381,73.290073 C246.697154,76.3953543 247,79.950208 247,84 C247,114.988058 233.548727,168.771581 211.937301,218 C187.328362,274.056418 153.408325,324 139.189091,324 C124.973523,324 90.0831712,274.038452 64.8476847,218 C42.6738044,168.760215 29,114.997155 29,84 C29,80.5017793 29.2325958,77.3728592 29.6771602,74.5840001 Z" id="Combined-Shape" fill="#E73B1B"></path>
                <polygon id="Rectangle" fill="#FFFFFF" points="195.162954 112.553163 159.06109 218.534509 166.760215 125.889814 122.116326 115.292422 126.789562 193.333173 86 64"></polygon>
                <circle id="Oval-2" fill="#FFFFFF" cx="108" cy="203" r="16"></circle>
                <circle id="Oval-2-Copy" fill="#FFFFFF" cx="147.5" cy="227.5" r="11.5"></circle>
            </g>
        </g>
    </g>
</svg>